<svg xmlns="http://www.w3.org/2000/svg" version="1.1" xmlns:xlink="http://www.w3.org/1999/xlink" xmlns:svgjs="http://svgjs.com/svgjs" width="1440" height="560" preserveAspectRatio="none" viewBox="0 0 1440 560"><g mask="url(&quot;#SvgjsMask1071&quot;)" fill="none"><rect width="1440" height="560" x="0" y="0" fill="rgba(245, 206, 85, 1)"></rect><path d="M0,539.528C122.128,538.955,248.393,610.678,358.498,557.834C470.866,503.904,520.283,374.542,576.033,263.065C633.619,147.917,694.759,29.746,686.86,-98.756C678.64,-232.47,637.697,-378.862,531.548,-460.589C427.846,-540.432,277.759,-482.153,150.299,-511.87C33.02,-539.214,-67.793,-658.155,-184.244,-627.477C-300.569,-596.832,-351.575,-462.483,-417.964,-362.168C-476.476,-273.754,-515.959,-179.953,-547.422,-78.707C-584.571,40.835,-653.325,162.18,-618.255,282.348C-582.071,406.334,-479.919,511.603,-360.667,561.209C-247.166,608.423,-122.928,540.105,0,539.528" fill="#cb9c0c"></path><path d="M1440 983.3820000000001C1517.779 988.762 1564.945 898.0930000000001 1626.673 850.4680000000001 1682.321 807.534 1750.635 778.896 1784.714 717.4259999999999 1820.069 653.654 1841.045 574.797 1817.8220000000001 505.677 1795.334 438.744 1716.967 413.041 1666.022 364.15 1620.905 320.852 1588.997 267.128 1535.505 234.74099999999999 1468.991 194.47000000000003 1398.69 149.08100000000002 1321.19 155.37099999999998 1238.248 162.103 1148.143 198.55200000000002 1104.958 269.684 1062.209 340.098 1107.498 429.474 1104.797 511.805 1102.471 582.69 1057.287 656.924 1090.192 719.752 1123.032 782.456 1212.691 783.141 1269.218 825.742 1332.366 873.3330000000001 1361.116 977.925 1440 983.3820000000001" fill="#fbedc2"></path></g><defs><mask id="SvgjsMask1071"><rect width="1440" height="560" fill="#ffffff"></rect></mask></defs></svg>