<svg xmlns="http://www.w3.org/2000/svg" version="1.1" xmlns:xlink="http://www.w3.org/1999/xlink" xmlns:svgjs="http://svgjs.com/svgjs" width="1440" height="560" preserveAspectRatio="none" viewBox="0 0 1440 560"><g mask="url(&quot;#SvgjsMask1000&quot;)" fill="none"><rect width="1440" height="560" x="0" y="0" fill="#0e2a47"></rect><path d="M 0,58 C 57.6,88.8 172.8,221.8 288,212 C 403.2,202.2 460.8,20.8 576,9 C 691.2,-2.8 748.8,131.2 864,153 C 979.2,174.8 1036.8,98.4 1152,118 C 1267.2,137.6 1382.4,224.4 1440,251L1440 560L0 560z" fill="#184a7e"></path><path d="M 0,320 C 96,350.8 288,466.6 480,474 C 672,481.4 768,346.2 960,357 C 1152,367.8 1344,493.8 1440,528L1440 560L0 560z" fill="#2264ab"></path></g><defs><mask id="SvgjsMask1000"><rect width="1440" height="560" fill="#ffffff"></rect></mask></defs></svg>