<svg id="visual" viewBox="0 0 675 900" width="675" height="900" xmlns="http://www.w3.org/2000/svg" xmlns:xlink="http://www.w3.org/1999/xlink" version="1.1"><path d="M0 806L18.8 798C37.7 790 75.3 774 112.8 745C150.3 716 187.7 674 225.2 678C262.7 682 300.3 732 337.8 753.7C375.3 775.3 412.7 768.7 450.2 750.3C487.7 732 525.3 702 562.8 679.8C600.3 657.7 637.7 643.3 656.3 636.2L675 629L675 901L656.3 901C637.7 901 600.3 901 562.8 901C525.3 901 487.7 901 450.2 901C412.7 901 375.3 901 337.8 901C300.3 901 262.7 901 225.2 901C187.7 901 150.3 901 112.8 901C75.3 901 37.7 901 18.8 901L0 901Z" fill="#FCAF3C" stroke-linecap="round" stroke-linejoin="miter"></path></svg>