<svg id="visual" viewBox="0 0 900 600" width="900" height="600" xmlns="http://www.w3.org/2000/svg" xmlns:xlink="http://www.w3.org/1999/xlink" version="1.1"><rect x="0" y="0" width="900" height="600" fill="#ffffff"></rect><path d="M0 444L25 436.7C50 429.3 100 414.7 150 421C200 427.3 250 454.7 300 462C350 469.3 400 456.7 450 456.7C500 456.7 550 469.3 600 461.2C650 453 700 424 750 426.8C800 429.7 850 464.3 875 481.7L900 499L900 601L875 601C850 601 800 601 750 601C700 601 650 601 600 601C550 601 500 601 450 601C400 601 350 601 300 601C250 601 200 601 150 601C100 601 50 601 25 601L0 601Z" fill="#FCAF3C" stroke-linecap="round" stroke-linejoin="miter"></path></svg>