<svg id="visual" viewBox="0 0 900 900" width="900" height="900" xmlns="http://www.w3.org/2000/svg" xmlns:xlink="http://www.w3.org/1999/xlink" version="1.1"><path d="M0 806L25 798C50 790 100 774 150 745C200 716 250 674 300 678C350 682 400 732 450 753.7C500 775.3 550 768.7 600 750.3C650 732 700 702 750 679.8C800 657.7 850 643.3 875 636.2L900 629L900 901L875 901C850 901 800 901 750 901C700 901 650 901 600 901C550 901 500 901 450 901C400 901 350 901 300 901C250 901 200 901 150 901C100 901 50 901 25 901L0 901Z" fill="#FCAF3C" stroke-linecap="round" stroke-linejoin="miter"></path></svg>