<svg id="visual" viewBox="0 0 960 540" width="960" height="540" xmlns="http://www.w3.org/2000/svg" xmlns:xlink="http://www.w3.org/1999/xlink" version="1.1"><path d="M0 483L26.7 478.2C53.3 473.3 106.7 463.7 160 446.3C213.3 429 266.7 404 320 406.5C373.3 409 426.7 439 480 452C533.3 465 586.7 461 640 450C693.3 439 746.7 421 800 407.7C853.3 394.3 906.7 385.7 933.3 381.3L960 377L960 541L933.3 541C906.7 541 853.3 541 800 541C746.7 541 693.3 541 640 541C586.7 541 533.3 541 480 541C426.7 541 373.3 541 320 541C266.7 541 213.3 541 160 541C106.7 541 53.3 541 26.7 541L0 541Z" fill="#FCAF3C" stroke-linecap="round" stroke-linejoin="miter"></path></svg>