<svg id="visual" viewBox="0 0 960 540" width="960" height="540" xmlns="http://www.w3.org/2000/svg" xmlns:xlink="http://www.w3.org/1999/xlink" version="1.1"><rect x="0" y="0" width="960" height="540" fill="#ffffff"></rect><path d="M0 386L26.7 386.5C53.3 387 106.7 388 160 399.7C213.3 411.3 266.7 433.7 320 436.8C373.3 440 426.7 424 480 413C533.3 402 586.7 396 640 389.5C693.3 383 746.7 376 800 373C853.3 370 906.7 371 933.3 371.5L960 372L960 541L933.3 541C906.7 541 853.3 541 800 541C746.7 541 693.3 541 640 541C586.7 541 533.3 541 480 541C426.7 541 373.3 541 320 541C266.7 541 213.3 541 160 541C106.7 541 53.3 541 26.7 541L0 541Z" fill="#FCAF3C" stroke-linecap="round" stroke-linejoin="miter"></path></svg>